<mxfile host="app.diagrams.net" modified="2023-07-15T12:12:17.040Z" agent="Mozilla/5.0 (Macintosh; Intel Mac OS X 10_15_7) AppleWebKit/537.36 (KHTML, like Gecko) Chrome/114.0.0.0 Safari/537.36" version="21.6.2" etag="MidmPbjMe9zciZytJcrq" type="github">
  <diagram name="Page-1" id="B9Mj2-b3dq1Cd7GQC0pU">
    <mxGraphModel>
      <root>
        <mxCell id="0" />
        <mxCell id="1" parent="0" />
      </root>
    </mxGraphModel>
  </diagram>
</mxfile>
